<?xml version="1.0" encoding="UTF-8" standalone="no"?>
<!-- Created with Inkscape (http://www.inkscape.org/) -->

<svg
   width="13.10645mm"
   height="2.3719056mm"
   viewBox="0 0 13.10645 2.3719056"
   version="1.1"
   id="svg1"
   inkscape:version="1.4.2 (ebf0e940d0, 2025-05-08)"
   sodipodi:docname="logo_dark.svg"
   xmlns:inkscape="http://www.inkscape.org/namespaces/inkscape"
   xmlns:sodipodi="http://sodipodi.sourceforge.net/DTD/sodipodi-0.dtd"
   xmlns="http://www.w3.org/2000/svg"
   xmlns:svg="http://www.w3.org/2000/svg">
  <sodipodi:namedview
     id="namedview1"
     pagecolor="#ffffff"
     bordercolor="#000000"
     borderopacity="0.25"
     inkscape:showpageshadow="2"
     inkscape:pageopacity="0.0"
     inkscape:pagecheckerboard="true"
     inkscape:deskcolor="#d1d1d1"
     inkscape:document-units="mm"
     inkscape:zoom="11.402918"
     inkscape:cx="27.84375"
     inkscape:cy="38.71816"
     inkscape:window-width="2256"
     inkscape:window-height="1438"
     inkscape:window-x="0"
     inkscape:window-y="29"
     inkscape:window-maximized="1"
     inkscape:current-layer="layer1" />
  <defs
     id="defs1" />
  <g
     inkscape:label="Layer 1"
     inkscape:groupmode="layer"
     id="layer1"
     transform="translate(-23.137761,-13.127785)">
    <path
       style="font-size:2.82223px;font-family:Quicksand;-inkscape-font-specification:Quicksand;text-align:end;text-anchor:end;stroke-width:0.264583"
       d="m 23.225252,13.933671 q 0.02258,0 0.04516,0.01411 0.02258,0.01411 0.03387,0.04233 l 0.493891,1.174048 -0.03669,0.02258 0.505179,-1.196626 q 0.02258,-0.05644 0.08185,-0.05362 0.02822,0 0.05362,0.01975 0.0254,0.01693 0.0254,0.0508 0,0.01693 -0.0056,0.02822 -0.0028,0.0085 -0.0056,0.01975 l -0.553157,1.298226 q -0.02258,0.0508 -0.0762,0.05362 -0.0254,0.0028 -0.0508,-0.01129 -0.02258,-0.01693 -0.03387,-0.04233 l -0.55598,-1.298226 q -0.0028,-0.0056 -0.0056,-0.01693 -0.0028,-0.01129 -0.0028,-0.02258 0,-0.03104 0.02258,-0.05644 0.02258,-0.0254 0.06491,-0.0254 z m 2.164651,1.501426 q -0.217312,0 -0.383823,-0.09313 -0.166512,-0.09313 -0.259646,-0.259645 -0.09313,-0.166511 -0.09313,-0.389468 0,-0.239889 0.09313,-0.409223 0.09596,-0.169334 0.245534,-0.259645 0.152401,-0.09313 0.321735,-0.09313 0.124178,0 0.239889,0.04516 0.118534,0.04233 0.208845,0.129823 0.09313,0.08467 0.146756,0.208845 0.05645,0.124178 0.06209,0.287867 -0.0028,0.03387 -0.02822,0.05927 -0.0254,0.02258 -0.05927,0.02258 h -1.131714 l -0.03387,-0.152401 h 1.111959 l -0.03669,0.03387 v -0.05645 q -0.01129,-0.132644 -0.08467,-0.225778 -0.07338,-0.09313 -0.177801,-0.141111 -0.104422,-0.04798 -0.217311,-0.04798 -0.08467,0 -0.174979,0.03387 -0.08749,0.03387 -0.160867,0.107245 -0.07055,0.07056 -0.115711,0.183445 -0.04516,0.110067 -0.04516,0.262468 0,0.166511 0.06773,0.301978 0.06773,0.135467 0.194734,0.21449 0.129822,0.07902 0.307623,0.07902 0.09878,0 0.1778,-0.02822 0.07902,-0.02822 0.138289,-0.07338 0.05927,-0.04798 0.09878,-0.09878 0.03104,-0.0254 0.06209,-0.0254 0.02822,0 0.04798,0.02258 0.02258,0.02258 0.02258,0.0508 0,0.03387 -0.02822,0.05927 -0.08467,0.101601 -0.220134,0.177801 -0.135467,0.07338 -0.296334,0.07338 z m 1.591739,-1.481671 q 0.174978,0 0.299157,0.09313 0.124178,0.09031 0.169333,0.270934 l -0.03951,0.01129 0.01693,-0.0508 q 0.03669,-0.08467 0.121356,-0.158045 0.08749,-0.0762 0.197556,-0.121356 0.110067,-0.04516 0.222957,-0.04516 0.1778,0 0.285045,0.0762 0.110067,0.0762 0.158045,0.206023 0.0508,0.127001 0.0508,0.287868 v 0.798691 q 0,0.03387 -0.0254,0.05927 -0.02258,0.0254 -0.05927,0.0254 -0.03669,0 -0.06209,-0.0254 -0.02258,-0.0254 -0.02258,-0.05927 v -0.790225 q 0,-0.115711 -0.03669,-0.211667 -0.03669,-0.09596 -0.115711,-0.1524 -0.07902,-0.05645 -0.211668,-0.05645 -0.115711,0 -0.222956,0.05645 -0.104422,0.05644 -0.172156,0.1524 -0.06491,0.09596 -0.06491,0.211667 v 0.790225 q 0,0.03387 -0.0254,0.05927 -0.02258,0.0254 -0.05927,0.0254 -0.03669,0 -0.06209,-0.0254 -0.02258,-0.0254 -0.02258,-0.05927 v -0.798691 q 0,-0.115712 -0.03387,-0.208845 -0.03387,-0.09313 -0.110067,-0.146756 -0.0762,-0.05645 -0.206022,-0.05645 -0.115712,0 -0.220134,0.05645 -0.101601,0.05362 -0.166512,0.146756 -0.06209,0.09313 -0.06209,0.208845 v 0.798691 q 0,0.03387 -0.0254,0.05927 -0.0254,0.0254 -0.05927,0.0254 -0.03951,0 -0.06209,-0.0254 -0.02258,-0.0254 -0.02258,-0.05927 v -1.264359 q 0,-0.03387 0.02258,-0.05927 0.0254,-0.0254 0.06209,-0.0254 0.03669,0 0.05927,0.0254 0.0254,0.0254 0.0254,0.05927 v 0.262467 l -0.0762,0.104423 q 0.0085,-0.08467 0.05362,-0.169334 0.04798,-0.08467 0.124178,-0.152401 0.0762,-0.06773 0.172156,-0.107244 0.09878,-0.04233 0.206023,-0.04233 z m 2.610565,-0.02258 q 0.191912,0 0.338668,0.09596 0.149578,0.09596 0.237067,0.26529 0.08749,0.166511 0.08749,0.386645 0,0.21449 -0.08749,0.386646 -0.08749,0.172156 -0.237067,0.270934 -0.149579,0.09878 -0.335846,0.09878 -0.09878,0 -0.189089,-0.03105 -0.08749,-0.03104 -0.160867,-0.08184 -0.07338,-0.05362 -0.129823,-0.124178 -0.05644,-0.07056 -0.09031,-0.152401 l 0.0508,-0.03669 v 0.318912 q 0,0.03669 -0.0254,0.06209 -0.02258,0.02258 -0.05927,0.02258 -0.03669,0 -0.06209,-0.02258 -0.02258,-0.0254 -0.02258,-0.06209 v -1.921938 q 0,-0.03669 0.02258,-0.05927 0.02258,-0.0254 0.06209,-0.0254 0.03669,0 0.05927,0.0254 0.0254,0.02258 0.0254,0.05927 v 0.945447 l -0.03951,-0.02258 q 0.02822,-0.08749 0.08184,-0.158045 0.05645,-0.07338 0.129823,-0.127 0.07338,-0.05362 0.160867,-0.08184 0.08749,-0.03105 0.183445,-0.03105 z m -0.01411,0.158045 q -0.152401,0 -0.268112,0.0762 -0.115711,0.0762 -0.183445,0.208845 -0.06491,0.132645 -0.06491,0.304801 0,0.169334 0.06491,0.307623 0.06773,0.135467 0.183445,0.21449 0.115711,0.0762 0.268112,0.0762 0.149578,0 0.262467,-0.07902 0.115712,-0.07902 0.183445,-0.21449 0.06773,-0.138289 0.06773,-0.304801 0,-0.172156 -0.06773,-0.304801 -0.06773,-0.132644 -0.183445,-0.208845 -0.112889,-0.0762 -0.262467,-0.0762 z m 1.12325,1.317982 q -0.03951,0 -0.06209,-0.0254 -0.02258,-0.0254 -0.02258,-0.05927 v -1.264359 q 0,-0.03387 0.02258,-0.05927 0.0254,-0.0254 0.06209,-0.0254 0.03669,0 0.05927,0.0254 0.0254,0.0254 0.0254,0.05927 v 0.423334 l -0.04233,0.0085 q 0.0085,-0.09878 0.04798,-0.194734 0.04233,-0.09878 0.112889,-0.180623 0.07056,-0.08184 0.166512,-0.132645 0.09878,-0.0508 0.220134,-0.0508 0.0508,0 0.09878,0.02258 0.04798,0.01976 0.04798,0.06773 0,0.04233 -0.02258,0.06491 -0.02258,0.02258 -0.05362,0.02258 -0.0254,0 -0.05645,-0.01411 -0.02822,-0.01411 -0.0762,-0.01411 -0.07902,0 -0.158045,0.04798 -0.07902,0.04516 -0.143934,0.124179 -0.06491,0.07902 -0.104422,0.1778 -0.03669,0.09596 -0.03669,0.194734 v 0.697091 q 0,0.03387 -0.0254,0.05927 -0.0254,0.0254 -0.05927,0.0254 z m 2.150543,-1.44216 q 0.03669,0 0.05927,0.0254 0.0254,0.0254 0.0254,0.06209 v 1.270004 q 0,0.03387 -0.0254,0.05927 -0.0254,0.0254 -0.05927,0.0254 -0.03669,0 -0.06209,-0.0254 -0.02258,-0.0254 -0.02258,-0.05927 v -0.335846 l 0.04798,-0.02258 q 0,0.07902 -0.04516,0.160867 -0.04233,0.08184 -0.118534,0.1524 -0.0762,0.07056 -0.180623,0.115712 -0.1016,0.04233 -0.220133,0.04233 -0.191912,0 -0.344313,-0.09878 -0.149578,-0.09878 -0.237067,-0.270934 -0.08467,-0.172156 -0.08467,-0.386646 0,-0.220134 0.08749,-0.386645 0.08749,-0.169334 0.237068,-0.26529 0.149578,-0.09596 0.338667,-0.09596 0.121356,0 0.225779,0.04233 0.107244,0.04233 0.186267,0.115711 0.07902,0.07338 0.121356,0.169334 0.04516,0.09313 0.04516,0.194734 l -0.05927,-0.04233 v -0.358423 q 0,-0.03669 0.02258,-0.06209 0.0254,-0.0254 0.06209,-0.0254 z m -0.587024,1.312337 q 0.149578,0 0.265289,-0.0762 0.115712,-0.07902 0.180623,-0.21449 0.06773,-0.138289 0.06773,-0.307623 0,-0.166511 -0.06773,-0.299156 -0.06491,-0.132645 -0.180623,-0.211667 -0.115711,-0.07902 -0.265289,-0.07902 -0.146756,0 -0.26529,0.0762 -0.115711,0.0762 -0.183445,0.208845 -0.06491,0.132645 -0.06491,0.304801 0,0.169334 0.06491,0.307623 0.06773,0.135467 0.183445,0.21449 0.115711,0.0762 0.26529,0.0762 z m 1.79494,-1.346204 q 0.186268,0 0.296334,0.0762 0.11289,0.07338 0.160868,0.2032 0.0508,0.127 0.0508,0.282223 v 0.829736 q 0,0.03387 -0.0254,0.05927 -0.0254,0.0254 -0.05927,0.0254 -0.03951,0 -0.06209,-0.0254 -0.02258,-0.0254 -0.02258,-0.05927 v -0.821269 q 0,-0.112889 -0.03669,-0.206023 -0.03669,-0.09313 -0.121356,-0.149578 -0.08185,-0.05645 -0.217312,-0.05645 -0.121356,0 -0.231423,0.05645 -0.107244,0.05644 -0.174978,0.149578 -0.06773,0.09313 -0.06773,0.206023 v 0.821269 q 0,0.03387 -0.0254,0.05927 -0.0254,0.0254 -0.05927,0.0254 -0.03951,0 -0.06209,-0.0254 -0.02258,-0.0254 -0.02258,-0.05927 v -1.264359 q 0,-0.03387 0.02258,-0.05927 0.0254,-0.0254 0.06209,-0.0254 0.03669,0 0.05927,0.0254 0.0254,0.0254 0.0254,0.05927 v 0.237067 l -0.06491,0.1016 q 0.0056,-0.09031 0.05644,-0.172156 0.05362,-0.08467 0.135467,-0.149578 0.08185,-0.06773 0.180623,-0.104422 0.1016,-0.03951 0.2032,-0.03951 z m 1.603025,1.504249 q -0.217312,0 -0.383824,-0.09313 -0.166511,-0.09313 -0.259645,-0.259645 -0.09313,-0.166511 -0.09313,-0.389468 0,-0.239889 0.09313,-0.409223 0.09596,-0.169334 0.245534,-0.259645 0.152401,-0.09313 0.321734,-0.09313 0.124179,0 0.23989,0.04516 0.118534,0.04233 0.208845,0.129823 0.09313,0.08467 0.146756,0.208845 0.05645,0.124178 0.06209,0.287867 -0.0028,0.03387 -0.02822,0.05927 -0.0254,0.02258 -0.05927,0.02258 h -1.131714 l -0.03387,-0.152401 h 1.111958 l -0.03669,0.03387 v -0.05645 q -0.01129,-0.132644 -0.08467,-0.225778 -0.07338,-0.09313 -0.177801,-0.141111 -0.104422,-0.04798 -0.217312,-0.04798 -0.08467,0 -0.174978,0.03387 -0.08749,0.03387 -0.160867,0.107245 -0.07056,0.07056 -0.115711,0.183445 -0.04516,0.110067 -0.04516,0.262468 0,0.166511 0.06773,0.301978 0.06773,0.135467 0.194734,0.21449 0.129823,0.07902 0.307623,0.07902 0.09878,0 0.177801,-0.02822 0.07902,-0.02822 0.138289,-0.07338 0.05927,-0.04798 0.09878,-0.09878 0.03104,-0.0254 0.06209,-0.0254 0.02822,0 0.04798,0.02258 0.02258,0.02258 0.02258,0.0508 0,0.03387 -0.02822,0.05927 -0.08467,0.101601 -0.220134,0.177801 -0.135467,0.07338 -0.296334,0.07338 z"
       id="text1"
       aria-label="vembrane" />
    <circle
       style="fill:#000000;stroke-width:0.264583"
       id="path1"
       cx="26.405157"
       cy="15.290862"
       r="0.20882812" />
    <circle
       style="fill:#000000;stroke-width:0.264583"
       id="circle1"
       cx="27.370676"
       cy="15.290862"
       r="0.20882812" />
    <circle
       style="fill:#000000;stroke-width:0.264583"
       id="circle2"
       cx="28.382603"
       cy="15.290862"
       r="0.20882812" />
    <circle
       style="fill:#000000;stroke-width:0.264583"
       id="circle3"
       cx="29.004581"
       cy="13.336613"
       r="0.20882812" />
    <circle
       style="fill:#000000;stroke-width:0.264583"
       id="circle4"
       cx="33.488632"
       cy="15.290862"
       r="0.20882812" />
    <circle
       style="fill:#000000;stroke-width:0.264583"
       id="circle5"
       cx="34.477348"
       cy="15.290862"
       r="0.20882812" />
    <circle
       style="fill:#000000;stroke-width:0.264583"
       id="circle6"
       cx="30.703585"
       cy="15.290862"
       r="0.20882812" />
  </g>
</svg>
